<?xml version="1.0" standalone="no"?>
<!DOCTYPE svg PUBLIC "-//W3C//DTD SVG 20010904//EN"
 "http://www.w3.org/TR/2001/REC-SVG-20010904/DTD/svg10.dtd">
<svg version="1.0" xmlns="http://www.w3.org/2000/svg"
 width="1036.000000pt" height="969.000000pt" viewBox="0 0 1036.000000 969.000000"
 preserveAspectRatio="xMidYMid meet">

<g transform="translate(0.000000,969.000000) scale(0.100000,-0.100000)"
fill="#000000" stroke="none">
<path d="M3787 9047 c-5 -14 7 -96 21 -142 22 -69 83 -180 146 -263 43 -58 43
-59 -19 -87 -77 -34 -215 -27 -396 21 -271 73 -469 82 -664 30 -181 -49 -307
-127 -451 -278 -84 -90 -150 -203 -194 -338 -5 -14 -18 -50 -30 -80 -12 -30
-33 -86 -47 -125 -174 -478 -499 -757 -855 -732 -43 3 -78 1 -78 -3 0 -10 83
-71 128 -94 52 -27 175 -55 272 -62 l89 -7 -36 -29 c-36 -28 -205 -128 -217
-128 -4 0 -19 -8 -34 -19 -23 -16 -152 -97 -200 -126 -65 -39 -265 -182 -299
-214 -141 -130 -240 -355 -259 -586 -8 -104 12 -375 38 -495 17 -81 64 -215
113 -325 8 -16 28 -70 45 -120 25 -75 65 -174 111 -280 86 -195 109 -424 65
-630 -20 -94 -96 -266 -151 -345 -44 -64 -57 -75 -148 -142 -37 -27 -67 -54
-67 -59 0 -5 30 6 68 25 37 19 150 75 252 124 308 150 557 336 717 535 29 37
58 67 63 67 14 0 12 -44 -4 -87 -104 -274 -141 -524 -141 -933 0 -289 14 -432
55 -575 37 -130 128 -301 230 -432 101 -129 309 -322 452 -418 264 -177 293
-200 392 -298 109 -110 144 -184 156 -333 9 -115 24 -174 44 -174 20 0 65 80
77 138 6 31 12 93 14 139 2 46 7 82 11 82 5 -1 41 -31 79 -66 245 -226 677
-406 1080 -450 190 -20 635 -23 790 -5 317 38 566 106 767 209 88 45 218 136
218 153 0 16 -32 41 -47 36 -8 -3 -12 -2 -8 3 3 5 -18 17 -46 26 -28 10 -47
21 -42 25 20 20 207 94 293 117 200 52 229 55 535 57 160 0 403 -3 540 -8 221
-8 258 -7 317 9 99 25 162 58 227 123 73 71 104 121 135 214 26 78 44 198 29
198 -4 0 -42 -14 -82 -30 -112 -46 -215 -70 -321 -75 -90 -4 -180 8 -180 25 0
4 33 25 73 45 238 125 333 182 487 293 40 29 241 229 283 282 84 106 140 186
195 277 34 56 62 104 62 106 0 2 17 40 37 83 109 234 156 455 157 734 1 155
-1 178 -18 202 -10 16 -21 28 -25 28 -4 0 -12 -42 -19 -93 -14 -111 -32 -166
-74 -228 -35 -51 -99 -99 -134 -99 -19 0 -22 7 -28 77 -11 131 -7 310 9 386
20 96 113 383 164 502 109 258 197 497 241 660 12 44 26 91 31 105 14 43 57
220 80 330 26 127 36 345 21 456 -23 171 -110 378 -196 467 -19 20 -19 20 -12
-9 4 -16 10 -68 13 -116 5 -82 4 -91 -24 -150 -29 -61 -68 -109 -105 -129 -24
-13 -52 30 -73 111 -19 72 -17 112 14 285 70 384 -35 764 -313 1130 -142 189
-271 292 -501 403 -38 19 -89 43 -112 55 -24 11 -45 18 -49 15 -3 -3 1 -26 10
-51 24 -70 30 -167 16 -241 -7 -36 -15 -66 -19 -66 -3 0 -31 53 -63 118 -111
230 -269 440 -460 613 -252 227 -462 350 -718 419 -164 45 -386 53 -555 21
-281 -55 -446 -73 -703 -78 -295 -6 -443 5 -647 49 -218 47 -432 135 -542 224
-47 38 -49 39 -56 21z m1094 -652 c91 -16 308 -73 324 -85 6 -5 26 -13 45 -18
105 -32 246 -99 420 -199 177 -103 329 -152 625 -202 257 -43 430 -92 587
-165 85 -39 224 -119 238 -136 3 -4 32 -26 65 -50 135 -99 377 -370 503 -564
40 -61 46 -67 55 -50 18 31 20 269 4 354 -8 41 -13 77 -11 79 2 3 24 -18 49
-45 143 -155 259 -378 315 -604 55 -227 59 -388 24 -950 -15 -229 -13 -364 5
-465 l7 -40 38 69 c44 78 91 193 101 249 4 20 10 37 14 37 27 0 66 -221 82
-463 28 -418 -28 -847 -161 -1247 -172 -515 -359 -867 -575 -1085 -38 -39 -94
-86 -122 -104 -53 -34 -68 -50 -35 -36 9 5 87 11 172 15 85 5 165 11 178 15
19 6 21 5 15 -11 -30 -79 -256 -220 -518 -324 -303 -119 -347 -141 -535 -261
-41 -27 -88 -60 -105 -74 -107 -92 -154 -138 -150 -145 2 -4 18 -10 35 -14 85
-16 277 -122 330 -181 l25 -28 -45 7 c-25 3 -97 11 -160 17 -259 25 -614 -38
-837 -149 -319 -159 -735 -221 -1114 -166 l-44 6 50 -34 c69 -48 199 -101 337
-139 112 -31 116 -33 92 -46 -40 -20 -197 -60 -309 -78 -62 -10 -163 -17 -265
-17 -245 -1 -418 29 -650 112 -108 38 -340 149 -371 176 -8 8 -19 14 -23 14
-4 0 -14 6 -22 12 -114 101 -165 150 -251 243 -138 147 -152 164 -230 272
l-68 93 -5 -101 c-5 -99 -5 -101 -18 -66 -7 21 -18 37 -23 37 -5 0 -9 5 -9 11
0 20 -102 151 -194 249 -89 95 -217 218 -356 340 -91 81 -107 97 -147 146 -78
97 -96 122 -130 178 -20 34 -39 63 -42 66 -3 3 -29 52 -58 110 -44 89 -75 174
-124 336 -52 174 -47 482 11 674 6 19 17 78 26 130 59 364 172 659 314 815 15
17 37 46 50 65 13 19 35 49 49 66 88 106 136 170 256 344 32 47 73 102 91 122
18 20 40 52 50 70 l17 33 -24 -22 c-30 -27 -159 -94 -259 -134 -41 -17 -79
-34 -85 -38 -5 -5 -27 -14 -47 -20 -21 -7 -38 -17 -38 -22 0 -5 -5 -9 -11 -9
-18 0 -139 -85 -187 -129 -140 -134 -253 -372 -288 -606 -19 -127 -21 -135
-52 -225 -64 -189 -186 -348 -336 -438 -80 -48 -101 -53 -92 -19 78 276 49
586 -110 1148 -52 187 -64 258 -64 404 0 109 10 199 31 285 21 82 81 244 117
315 33 64 121 203 146 232 6 6 38 42 71 80 111 127 242 234 390 319 64 37 233
114 249 114 4 0 33 11 64 25 31 14 74 33 96 43 104 46 356 172 356 178 0 11
-314 -8 -347 -20 -27 -11 26 87 140 259 147 221 339 410 542 535 236 145 476
221 756 239 194 13 348 -1 619 -54 110 -22 327 -31 373 -16 20 7 37 16 37 19
0 4 -27 40 -61 80 -66 80 -171 162 -266 207 -34 17 -62 33 -62 37 -1 6 70 23
134 32 51 7 228 -4 316 -19z"/>
<path d="M2914 5156 c-61 -21 -96 -41 -131 -78 -35 -37 -78 -124 -88 -178 -3
-19 -11 -64 -17 -100 -23 -142 9 -353 69 -442 77 -115 228 -163 383 -124 191
49 273 192 273 471 0 141 -15 221 -58 306 -29 56 -104 124 -154 140 -56 18
-229 20 -277 5z m220 -144 c20 -11 42 -39 61 -77 30 -59 30 -62 30 -225 0
-223 -26 -299 -112 -336 -89 -38 -192 -1 -234 83 -23 45 -24 59 -24 223 0 142
3 185 18 226 19 56 69 110 113 124 39 12 110 4 148 -18z"/>
<path d="M3440 5152 c0 -2 10 -16 22 -33 22 -29 23 -41 31 -362 9 -357 4 -435
-33 -487 l-21 -30 147 0 c141 0 146 1 131 18 -38 41 -50 95 -55 236 l-5 138
104 -4 c168 -6 190 -29 213 -217 16 -127 25 -155 52 -165 8 -3 54 -6 101 -6
l85 0 -16 23 c-28 38 -37 68 -52 177 -13 96 -52 210 -72 210 -4 0 -20 11 -37
24 l-29 23 41 21 c81 42 118 113 111 212 -7 104 -71 178 -183 212 -27 8 -121
13 -287 13 -137 0 -248 -1 -248 -3z m491 -142 c57 -26 78 -123 38 -174 -11
-14 -34 -33 -50 -42 -36 -18 -165 -34 -220 -27 l-39 6 0 91 c0 116 6 135 44
152 37 17 186 13 227 -6z"/>
<path d="M4180 5151 c0 -5 6 -11 14 -14 30 -12 110 -142 215 -354 l111 -221 0
-94 c0 -102 -12 -158 -42 -200 l-19 -28 147 0 c144 0 147 0 130 19 -29 32 -46
109 -46 208 l0 94 111 222 c71 144 131 249 169 300 l59 77 -146 0 c-141 0
-146 -1 -130 -18 35 -39 22 -95 -58 -259 -41 -84 -79 -153 -85 -153 -6 0 -15
12 -21 27 -5 14 -36 83 -68 152 -70 150 -78 180 -58 221 l15 30 -149 0 c-82 0
-149 -4 -149 -9z"/>
<path d="M5280 5125 c0 -19 -20 -90 -44 -158 -25 -67 -65 -180 -91 -252 -93
-266 -119 -332 -157 -402 l-39 -73 136 0 136 0 -20 26 c-23 29 -28 85 -11 128
l10 26 185 0 185 0 10 -26 c16 -40 12 -86 -10 -121 l-20 -33 277 0 276 0 -21
23 c-37 40 -43 96 -40 387 l3 275 76 -155 c187 -378 239 -490 239 -509 0 -20
5 -21 115 -21 114 0 116 0 105 21 -8 15 -10 133 -7 402 4 398 8 432 49 477 19
20 19 20 -122 20 -77 0 -140 -2 -140 -5 0 -3 9 -18 20 -33 11 -15 25 -54 30
-87 13 -80 13 -512 0 -520 -5 -3 -10 0 -10 7 0 7 -50 114 -111 238 -145 296
-171 357 -164 380 6 19 1 20 -151 20 l-156 0 16 -22 c40 -56 41 -62 41 -443 0
-336 -2 -373 -18 -402 -10 -18 -22 -33 -27 -33 -5 0 -23 26 -39 59 -38 74
-271 773 -271 812 l0 29 -120 0 -120 0 0 -35z m184 -364 c31 -96 56 -180 56
-188 0 -10 -29 -13 -135 -13 -74 0 -135 1 -135 3 0 9 129 387 136 398 10 16 9
18 78 -200z"/>
<path d="M6957 5133 c3 -18 -31 -130 -92 -303 -134 -384 -162 -456 -201 -527
l-35 -63 138 0 c76 0 133 4 127 8 -30 20 -43 92 -28 150 6 22 8 22 195 22 214
0 204 4 203 -82 0 -25 -8 -58 -17 -72 l-17 -26 146 0 c139 0 146 1 132 18 -8
9 -25 35 -37 56 -32 56 -271 773 -271 813 l0 33 -123 0 -124 0 4 -27z m226
-502 c9 -29 17 -57 17 -62 0 -5 -61 -9 -135 -9 -74 0 -135 2 -135 5 0 9 129
385 136 397 6 10 37 -76 117 -331z"/>
<path d="M520 5239 c-83 -50 -158 -165 -186 -286 -14 -61 -14 -73 1 -140 9
-40 27 -104 39 -141 l23 -67 17 40 c9 22 43 84 74 138 82 141 82 140 98 219
16 76 13 168 -7 227 -13 37 -14 37 -59 10z"/>
<path d="M616 4741 c-4 -5 -19 -45 -33 -88 -25 -71 -28 -91 -28 -228 0 -148 1
-151 37 -250 20 -55 50 -136 66 -180 35 -97 46 -172 32 -224 -5 -21 -37 -73
-70 -115 -52 -68 -130 -194 -130 -210 0 -20 36 10 171 142 158 153 187 194
220 307 20 72 18 310 -5 393 -42 157 -76 230 -158 339 -96 129 -94 127 -102
114z"/>
<path d="M1462 3667 c-40 -75 -121 -126 -319 -203 -194 -75 -280 -124 -377
-214 -80 -74 -174 -211 -226 -327 l-19 -42 84 67 c106 86 144 99 320 106 187
8 265 25 321 71 92 76 179 228 213 375 19 83 37 210 30 210 -2 0 -14 -19 -27
-43z"/>
<path d="M1205 2967 c-15 -33 -68 -46 -197 -46 -136 -1 -182 -15 -241 -70 -46
-43 -102 -131 -84 -131 6 0 37 7 67 15 41 11 81 14 161 9 85 -5 116 -3 156 10
67 22 126 75 157 141 31 64 31 71 8 84 -14 7 -20 5 -27 -12z"/>
</g>
</svg>
